<svg xmlns="http://www.w3.org/2000/svg">
<symbol viewBox="0 0 46.2 46.2" id="rocket">
	<path d="M28.3,25.2c0.6,0,1.1-0.5,1.1-1c0-0.6-0.5-1-1.1-1c-0.6,0-1,0.5-1,1C27.3,24.7,27.8,25.2,28.3,25.2z M35.3,22.8
	c-0.4,0.4-1.1,1.1-1.8,1.9c-1.4,1.4-3.4,3.6-4.7,4.7l-12-12c1.1-1.2,3.3-3.3,4.7-4.7c0.8-0.8,1.5-1.4,1.9-1.8
	C29.1,5.2,40,2.1,44.1,2.1C44.1,5.5,41.2,16.9,35.3,22.8z M27.3,31.1c-0.8,2.8-1.8,5.4-2.9,7.4c-0.5-1.2-1.1-2.6-2.1-4.1
	c-0.4-0.6-1.1-1-1.8-1c-0.2,0-0.3,0-0.5,0.1c-0.4,0.1-0.8,0.2-1.2,0.2c-1.5,0-3-0.7-4.4-2c-1.7-1.7-2.3-3.7-1.8-5.6
	c0.2-0.9-0.2-1.8-0.9-2.3c-1.5-0.9-2.9-1.6-4.1-2.1c2.1-1.1,4.6-2.1,7.4-2.9c0.1,0,0.1-0.1,0.2-0.1L27.4,31
	C27.4,31,27.3,31.1,27.3,31.1z M45.8,0.4C45.6,0.1,45,0,44.1,0c-4.4,0-16,3.2-22.2,9.4c-1.5,1.5-6.3,5.9-7.4,7.4
	c-3.6,1-8.9,3-11.9,5.9c0,0,3.6,0,8,2.8C10,28.2,10.8,31,13,33.2c1.7,1.7,3.8,2.6,5.8,2.6c0.6,0,1.2-0.1,1.7-0.2
	c2.8,4.4,2.8,8,2.8,8c3-3,4.9-8.2,5.9-11.9c1.5-1.1,6-6,7.4-7.4C44.2,16.9,47.3,1.8,45.8,0.4z M34.6,10.5c0.6,0,1.1,0.5,1.1,1
	c0,0.6-0.5,1.1-1.1,1.1c-0.6,0-1-0.5-1-1.1C33.6,11,34.1,10.5,34.6,10.5z M34.6,14.7c1.7,0,3.2-1.4,3.2-3.2c0-1.7-1.4-3.1-3.2-3.1
	c-1.7,0-3.1,1.4-3.1,3.1C31.5,13.3,32.9,14.7,34.6,14.7z M25.2,22.1c0.6,0,1.1-0.5,1.1-1c0-0.6-0.5-1-1.1-1s-1,0.5-1,1
	C24.1,21.6,24.6,22.1,25.2,22.1z M22,16.8c-0.6,0-1,0.5-1,1.1c0,0.6,0.5,1,1,1s1-0.5,1-1C23.1,17.3,22.6,16.8,22,16.8z M3.8,42.4
	l3.8-9.5c0.5,0.9,1.1,1.8,1.9,2.7c1.1,1.3,2.4,2.3,3.8,3.1L3.8,42.4z M8.1,25.8L0,46.2l20.4-8.1c-0.4,0-0.7,0.1-1.1,0.1
	C13.1,38.1,7.4,32.1,8.1,25.8z"/>
</symbol>
<symbol viewBox="0 0 37.8 46.2" id="table">
	<path d="M7.3,35.7h18.9c0.6,0,1.1-0.5,1.1-1c0-0.6-0.5-1-1.1-1H7.3c-0.6,0-1.1,0.5-1.1,1C6.3,35.2,6.8,35.7,7.3,35.7z M7.3,29.4
	h23.1c0.6,0,1-0.5,1-1.1c0-0.6-0.5-1-1-1H7.3c-0.6,0-1.1,0.5-1.1,1C6.3,28.9,6.8,29.4,7.3,29.4z M35.7,12.6H2.1V8.4h8.4
	c0,1.2,0.9,2.1,2.1,2.1h12.6c1.2,0,2.1-0.9,2.1-2.1h8.4V12.6z M35.7,44.1H2.1V14.7h33.6V44.1z M12.6,4.2h12.6v4.2H12.6V4.2z
	 M35.7,6.3h-8.4V4.2c0-1.2-0.9-2.1-2.1-2.1H21C21,0.9,20.1,0,18.9,0s-2.1,0.9-2.1,2.1h-4.2c-1.2,0-2.1,0.9-2.1,2.1v2.1H2.1
	C0.9,6.3,0,7.2,0,8.4v35.7c0,1.2,0.9,2.1,2.1,2.1h33.6c1.2,0,2.1-0.9,2.1-2.1V8.4C37.8,7.2,36.9,6.3,35.7,6.3z M7.3,23.1H20
	c0.6,0,1-0.5,1-1c0-0.6-0.5-1-1-1H7.3c-0.6,0-1.1,0.5-1.1,1C6.3,22.6,6.8,23.1,7.3,23.1z"/>
</symbol>
<symbol viewBox="0 0 46.2 46.2" id="windows">
	<path d="M13.6,12.6c-0.6,0-1,0.5-1,1s0.5,1.1,1,1.1s1.1-0.5,1.1-1.1S14.2,12.6,13.6,12.6z M32.5,12.6H17.9c-0.6,0-1.1,0.5-1.1,1
	s0.5,1.1,1.1,1.1h14.7c0.6,0,1-0.5,1-1.1S33.1,12.6,32.5,12.6z M35.7,16.8H2.1v-4.2c0-1.2,0.9-2.1,2.1-2.1h29.4
	c1.2,0,2.1,0.9,2.1,2.1V16.8z M35.7,42c0,1.2-0.9,2.1-2.1,2.1H4.2c-1.2,0-2.1-0.9-2.1-2.1V18.9h33.6V42z M33.6,8.4H4.2
	C1.9,8.4,0,10.3,0,12.6V42c0,2.3,1.9,4.2,4.2,4.2h29.4c2.3,0,4.2-1.9,4.2-4.2V12.6C37.8,10.3,35.9,8.4,33.6,8.4z M42,0H12.6
	c-2.3,0-4.2,1.9-4.2,4.2v1.1c0,0.6,0.5,1.1,1.1,1.1s1.1-0.5,1.1-1.1V4.2c0-1.2,0.9-2.1,2.1-2.1H42c1.2,0,2.1,0.9,2.1,2.1v29.4
	c0,1.2-0.9,2.1-2.1,2.1h-1c-0.6,0-1,0.5-1,1.1c0,0.6,0.5,1,1,1h1c2.3,0,4.2-1.9,4.2-4.2V4.2C46.2,1.9,44.3,0,42,0z M5.3,12.6
	c-0.6,0-1.1,0.5-1.1,1s0.5,1.1,1.1,1.1s1.1-0.5,1.1-1.1S5.8,12.6,5.3,12.6z M9.4,12.6c-0.6,0-1.1,0.5-1.1,1s0.5,1.1,1.1,1.1
	s1.1-0.5,1.1-1.1S10,12.6,9.4,12.6z"/>
</symbol>
<symbol viewBox="0 0 46.2 33.6" id="money">
	<path d="M24.6,22.2c-0.2-0.1-0.4-0.2-0.6-0.3c-0.2-0.1-0.3-0.1-0.5-0.2V25c0.5,0,0.8-0.2,1.1-0.4c0.3-0.3,0.5-0.7,0.5-1.2
	c0-0.3,0-0.5-0.1-0.7C24.9,22.5,24.8,22.3,24.6,22.2z M21.2,18.3c0,0.2,0,0.4,0.1,0.6c0.1,0.2,0.2,0.3,0.4,0.4
	c0.1,0.1,0.3,0.2,0.5,0.3c0.2,0.1,0.3,0.1,0.5,0.2v-2.9c-0.5,0-0.8,0.1-1.1,0.3C21.3,17.5,21.2,17.8,21.2,18.3z M26.5,24.5
	c-0.2,0.4-0.4,0.7-0.7,1c-0.3,0.3-0.7,0.5-1.1,0.6c-0.4,0.1-0.7,0.2-1.2,0.2v1h-0.8v-1c-0.5,0-0.9-0.1-1.3-0.2
	c-0.4-0.2-0.8-0.4-1.1-0.7c-0.3-0.3-0.5-0.6-0.7-1c-0.2-0.4-0.2-0.9-0.2-1.4H21c0,0.6,0.1,1.1,0.4,1.5c0.3,0.4,0.6,0.6,1.3,0.6v-3.5
	c-0.4-0.1-0.6-0.2-1-0.4c-0.4-0.1-0.7-0.3-1-0.6c-0.3-0.2-0.6-0.5-0.7-0.9c-0.2-0.4-0.3-0.8-0.3-1.3c0-0.5,0.1-0.9,0.3-1.2
	c0.2-0.3,0.4-0.6,0.7-0.9c0.3-0.2,0.6-0.4,1-0.5c0.4-0.1,0.7-0.2,1.1-0.2v-0.9h0.8v0.9c0.4,0,0.7,0.1,1.1,0.2c0.4,0.1,0.7,0.3,1,0.5
	c0.3,0.2,0.5,0.5,0.7,0.9c0.2,0.4,0.2,0.8,0.2,1.2h-1.6c0-0.5-0.1-0.9-0.4-1.1c-0.2-0.3-0.5-0.4-1-0.4v3c0.4,0.1,0.7,0.2,1.1,0.4
	c0.4,0.2,0.8,0.3,1.1,0.6c0.3,0.2,0.6,0.5,0.7,0.9c0.2,0.4,0.3,0.8,0.3,1.3C26.8,23.6,26.7,24.1,26.5,24.5z M23.1,12.6
	c-4.6,0-8.4,3.8-8.4,8.4c0,4.6,3.8,8.4,8.4,8.4s8.4-3.8,8.4-8.4C31.5,16.4,27.7,12.6,23.1,12.6z M11.5,12.6H9.4
	c-0.6,0-1.1,0.5-1.1,1.1s0.5,1.1,1.1,1.1h2.1c0.6,0,1.1-0.5,1.1-1.1S12.1,12.6,11.5,12.6z M36.8,27.3h-2.1c-0.6,0-1,0.5-1,1
	s0.5,1,1,1h2.1c0.6,0,1.1-0.5,1.1-1S37.3,27.3,36.8,27.3z M43.1,12.6c-0.6,0-1.1-0.5-1.1-1.1c0-0.6,0.5-1,1.1-1c0.6,0,1,0.5,1,1
	C44.1,12.1,43.6,12.6,43.1,12.6z M44.1,27.5c-0.3-0.1-0.7-0.2-1-0.2c-1.7,0-3.2,1.4-3.2,3.1c0,0.4,0.1,0.7,0.2,1h-34
	c0.1-0.3,0.2-0.7,0.2-1c0-1.7-1.4-3.1-3.2-3.1c-0.4,0-0.7,0.1-1.1,0.2v-13c0.3,0.1,0.7,0.2,1.1,0.2c1.7,0,3.2-1.4,3.2-3.2
	c0-0.4-0.1-0.7-0.2-1h34c-0.1,0.3-0.2,0.7-0.2,1c0,1.7,1.4,3.2,3.2,3.2c0.4,0,0.7-0.1,1-0.2V27.5z M43.1,31.5c-0.6,0-1.1-0.5-1.1-1
	c0-0.6,0.5-1.1,1.1-1.1c0.6,0,1,0.5,1,1.1C44.1,31,43.6,31.5,43.1,31.5z M3.2,31.5c-0.6,0-1.1-0.5-1.1-1c0-0.6,0.5-1.1,1.1-1.1
	s1.1,0.5,1.1,1.1C4.2,31,3.7,31.5,3.2,31.5z M3.2,10.5c0.6,0,1.1,0.5,1.1,1c0,0.6-0.5,1.1-1.1,1.1s-1.1-0.5-1.1-1.1
	C2.1,11,2.6,10.5,3.2,10.5z M44.1,8.4h-42C0.9,8.4,0,9.3,0,10.5v21c0,1.2,0.9,2.1,2.1,2.1h42c1.2,0,2.1-0.9,2.1-2.1v-21
	C46.2,9.3,45.3,8.4,44.1,8.4z M5.3,6.3H41c0.6,0,1-0.5,1-1c0-0.6-0.5-1.1-1-1.1H5.3c-0.6,0-1,0.5-1,1.1C4.2,5.8,4.7,6.3,5.3,6.3z
	 M9.4,2.1h27.3c0.6,0,1.1-0.5,1.1-1.1c0-0.6-0.5-1-1.1-1H9.4C8.9,0,8.4,0.5,8.4,1C8.4,1.6,8.9,2.1,9.4,2.1z"/>	
</symbol>
<symbol viewBox="0 0 38 38" id="g">
	<path d="M19,0C8.5,0,0,8.5,0,19s8.5,19,19,19s19-8.5,19-19S29.5,0,19,0z M29.6,25.5c-1,1.8-2.4,3.3-4.2,4.3c-1.8,1-3.9,1.5-6.2,1.5
	c-1.7,0-3.3-0.3-4.8-1c-1.5-0.6-2.8-1.5-3.9-2.6s-2-2.4-2.6-3.9c-0.6-1.5-1-3.1-1-4.8c0-1.7,0.3-3.3,1-4.8c0.6-1.5,1.5-2.8,2.6-3.9
	c1.1-1.1,2.4-2,3.9-2.6c1.5-0.6,3.1-1,4.8-1c3.2,0,6,1.1,8.2,3.2l0.3,0.3L24,13.8l-0.3-0.3c-1.2-1.2-2.7-1.7-4.5-1.7
	c-1.3,0-2.4,0.3-3.5,1c-1.1,0.6-1.9,1.5-2.6,2.6c-0.6,1.1-0.9,2.3-0.9,3.6s0.3,2.5,0.9,3.6c0.6,1.1,1.5,2,2.6,2.6
	c1.1,0.6,2.2,1,3.5,1c0.9,0,1.6-0.1,2.4-0.4c0.7-0.2,1.3-0.5,1.7-0.9c0.5-0.4,0.9-0.8,1.2-1.2c0.3-0.4,0.6-0.9,0.8-1.3
	c0.1-0.2,0.2-0.5,0.2-0.7h-6.7v-4.8h11.9l0.1,0.3c0.1,0.7,0.2,1.4,0.2,2C31,21.6,30.5,23.7,29.6,25.5z"/>
</symbol>
<symbol viewBox="0 0 20.7 20.7" id="close">
	<polygon points="20.7,0.7 20,0 10.4,9.6 0.7,0 0,0.7 9.6,10.4 0,20 0.7,20.7 10.4,11.1 20,20.7 20.7,20 11.1,10.4 "/>
</symbol>
<symbol viewBox="0 0 21 42" id="arrow">
	<path d="M2.5,21L20.7,1.8C20.9,1.6,21,1.3,21,1.1C21,0.5,20.5,0,19.9,0c-0.3,0-0.6,0.1-0.7,0.3L0.3,20.3
	C0.1,20.4,0,20.7,0,21s0.1,0.6,0.3,0.7l18.9,20c0.2,0.2,0.5,0.3,0.7,0.3c0.6,0,1.1-0.5,1.1-1.1c0-0.3-0.1-0.6-0.3-0.7L2.5,21z"/>
</symbol>
<symbol viewBox="0 0 36.7 36.7" id="result_1">
	<path d="M32.5,3.3H14.2c-0.5,0-0.8,0.4-0.8,0.8c0,0.5,0.4,0.8,0.8,0.8h18.3c0.5,0,0.8-0.4,0.8-0.8
	C33.3,3.7,33,3.3,32.5,3.3z M10.8,3.3c-0.5,0-0.8,0.4-0.8,0.8C10,4.6,10.4,5,10.8,5c0.5,0,0.8-0.4,0.8-0.8
	C11.7,3.7,11.3,3.3,10.8,3.3z M35,6.7H1.7V3.3c0-0.9,0.7-1.7,1.7-1.7h30c0.9,0,1.7,0.7,1.7,1.7V6.7z M35,33.3c0,0.9-0.7,1.7-1.7,1.7
	h-30c-0.9,0-1.7-0.7-1.7-1.7v-25H35V33.3z M33.3,0h-30C1.5,0,0,1.5,0,3.3v30c0,1.8,1.5,3.3,3.3,3.3h30c1.8,0,3.3-1.5,3.3-3.3v-30
	C36.7,1.5,35.2,0,33.3,0z M7.5,3.3C7,3.3,6.7,3.7,6.7,4.2C6.7,4.6,7,5,7.5,5s0.8-0.4,0.8-0.8C8.3,3.7,8,3.3,7.5,3.3z M4.2,3.3
	c-0.5,0-0.8,0.4-0.8,0.8C3.3,4.6,3.7,5,4.2,5C4.6,5,5,4.6,5,4.2C5,3.7,4.6,3.3,4.2,3.3z"/>
</symbol>
<symbol viewBox="0 0 36.7 33.3" id="result_2">
	<path d="M9.2,1.7c1.4,0,2.5,1.1,2.5,2.5c0,1.4-1.1,2.5-2.5,2.5c-1.4,0-2.5-1.1-2.5-2.5C6.7,2.8,7.8,1.7,9.2,1.7z M0.8,5
	h4.3c0.4,1.9,2.1,3.3,4.1,3.3c2,0,3.7-1.4,4.1-3.3h22.6c0.5,0,0.8-0.4,0.8-0.8c0-0.5-0.4-0.8-0.8-0.8H13.2C12.9,1.4,11.2,0,9.2,0
	c-2,0-3.7,1.4-4.1,3.3H0.8C0.4,3.3,0,3.7,0,4.2C0,4.6,0.4,5,0.8,5z M15.8,31.7c-1.4,0-2.5-1.1-2.5-2.5c0-1.4,1.1-2.5,2.5-2.5
	s2.5,1.1,2.5,2.5C18.3,30.5,17.2,31.7,15.8,31.7z M35.8,28.3H19.9c-0.4-1.9-2.1-3.3-4.1-3.3s-3.7,1.4-4.1,3.3H0.8
	c-0.5,0-0.8,0.4-0.8,0.8C0,29.6,0.4,30,0.8,30h10.9c0.4,1.9,2.1,3.3,4.1,3.3s3.7-1.4,4.1-3.3h15.9c0.5,0,0.8-0.4,0.8-0.8
	C36.7,28.7,36.3,28.3,35.8,28.3z M29.2,19.2c-1.4,0-2.5-1.1-2.5-2.5c0-1.4,1.1-2.5,2.5-2.5c1.4,0,2.5,1.1,2.5,2.5
	C31.7,18,30.5,19.2,29.2,19.2z M35.8,15.8h-2.6c-0.4-1.9-2.1-3.3-4.1-3.3c-2,0-3.7,1.4-4.1,3.3H0.8c-0.5,0-0.8,0.4-0.8,0.8
	c0,0.5,0.4,0.8,0.8,0.8h24.3c0.4,1.9,2.1,3.3,4.1,3.3c2,0,3.7-1.4,4.1-3.3h2.6c0.5,0,0.8-0.4,0.8-0.8C36.7,16.2,36.3,15.8,35.8,15.8
	z"/>
</symbol>
<symbol viewBox="0 0 36.7 30" id="result_3">
	<path d="M35.8,26.7H9.2c-0.5,0-0.8,0.4-0.8,0.8c0,0.5,0.4,0.8,0.8,0.8h26.7c0.5,0,0.8-0.4,0.8-0.8
	C36.7,27,36.3,26.7,35.8,26.7z M35.8,10H9.2c-0.5,0-0.8,0.4-0.8,0.8c0,0.5,0.4,0.8,0.8,0.8h26.7c0.5,0,0.8-0.4,0.8-0.8
	C36.7,10.4,36.3,10,35.8,10z M2.5,0C1.1,0,0,1.1,0,2.5C0,3.9,1.1,5,2.5,5C3.9,5,5,3.9,5,2.5C5,1.1,3.9,0,2.5,0z M35.8,18.3H9.2
	c-0.5,0-0.8,0.4-0.8,0.8c0,0.5,0.4,0.8,0.8,0.8h26.7c0.5,0,0.8-0.4,0.8-0.8C36.7,18.7,36.3,18.3,35.8,18.3z M9.2,3.3h26.7
	c0.5,0,0.8-0.4,0.8-0.8c0-0.5-0.4-0.8-0.8-0.8H9.2C8.7,1.7,8.3,2,8.3,2.5C8.3,3,8.7,3.3,9.2,3.3z M2.5,16.7c-1.4,0-2.5,1.1-2.5,2.5
	c0,1.4,1.1,2.5,2.5,2.5c1.4,0,2.5-1.1,2.5-2.5C5,17.8,3.9,16.7,2.5,16.7z M2.5,25C1.1,25,0,26.1,0,27.5C0,28.9,1.1,30,2.5,30
	C3.9,30,5,28.9,5,27.5C5,26.1,3.9,25,2.5,25z M2.5,8.3C1.1,8.3,0,9.5,0,10.8c0,1.4,1.1,2.5,2.5,2.5c1.4,0,2.5-1.1,2.5-2.5
	C5,9.5,3.9,8.3,2.5,8.3z"/>
</symbol>
<symbol viewBox="0 0 36.7 36.7" id="result_4">
	<path d="M35.2,11.3c-0.3-0.3-0.9-0.3-1.2,0c-0.2,0.2-0.3,0.6-0.2,0.9l0,0c0.8,1.9,1.2,4,1.2,6.2
	C35,27.5,27.5,35,18.3,35C9.1,35,1.7,27.5,1.7,18.3S9.1,1.7,18.3,1.7c4.7,0,9,2,12,5.1l0,0c0.3,0.3,0.8,0.3,1.1,0
	c0.3-0.3,0.3-0.9,0-1.2c0,0-0.1,0-0.1-0.1C28,2.1,23.4,0,18.3,0C8.2,0,0,8.2,0,18.3c0,10.1,8.2,18.3,18.3,18.3s18.3-8.2,18.3-18.3
	c0-2.4-0.5-4.6-1.3-6.7C35.4,11.5,35.3,11.4,35.2,11.3z M18.3,23l-7.7-7.7C10.4,15.1,10.2,15,10,15c-0.5,0-0.8,0.4-0.8,0.8
	c0,0.2,0.1,0.4,0.2,0.6l8.3,8.3c0.2,0.2,0.4,0.2,0.6,0.2c0.2,0,0.4-0.1,0.6-0.3l0,0l13.9-14.6c0,0,0,0,0,0L34,8.9c0,0,0,0,0,0
	l2.4-2.5l0,0c0.1-0.1,0.2-0.3,0.2-0.6c0-0.5-0.4-0.8-0.8-0.8c-0.2,0-0.4,0.1-0.6,0.3l0,0l-2.1,2.2c0,0,0,0,0,0l-1.2,1.2c0,0,0,0,0,0
	L18.3,23z"/>
</symbol>
<symbol viewBox="0 0 36.7 33.3" id="result_5">
	<path d="M36.7,11.3C36.7,5,30.7,0,23.3,0c-5.5,0-10.2,2.8-12.3,6.8c0.7-0.1,1.3-0.1,2-0.1c2-3,5.8-5,10.2-5
	C29.8,1.7,35,6,35,11.3c0,2.6-1.2,5-3.5,6.8c-0.5,0.4-0.7,1.1-0.6,1.8l0.7,2.4l-3.4-1.3c-0.1,0.6-0.2,1.1-0.3,1.7l6.3,2.4l-1.6-5.6
	C35.1,17.3,36.7,14.4,36.7,11.3z M13.3,29.2c-1,0-2-0.1-3-0.3c-0.1,0-0.2,0-0.4,0c-0.2,0-0.4,0-0.6,0.1L5,30.6l0.7-2.4
	c0.2-0.6,0-1.3-0.6-1.8c-2.3-1.8-3.5-4.2-3.5-6.8c0-5.3,5.2-9.6,11.7-9.6S25,14.3,25,19.6S19.8,29.2,13.3,29.2z M13.3,8.3
	C6,8.3,0,13.4,0,19.6c0,3.2,1.6,6.1,4.1,8.1l-1.6,5.6l7.5-2.9c1.1,0.2,2.2,0.4,3.4,0.4c7.4,0,13.3-5,13.3-11.3S20.7,8.3,13.3,8.3z"
	/>
</symbol>
<symbol viewBox="0 0 36.7 30" id="result_6">
	<path d="M28.3,28.3c-3.7,0-6.7-3-6.7-6.7s3-6.7,6.7-6.7s6.7,3,6.7,6.7S32,28.3,28.3,28.3z M21.7,4.7L21.7,4.7
	c0.2-1.7,1.6-3,3.3-3c1.3,0,2.5,0.8,3,2h0l4.5,10.9c-1.2-0.7-2.7-1.1-4.2-1.1c-2.7,0-5.1,1.3-6.7,3.3L21.7,4.7z M20,18.3h-3.3V6.7
	H20V18.3z M20,21.7h-3.3V20H20V21.7z M15,16.7c-1.5-2-3.9-3.3-6.7-3.3c-1.5,0-3,0.4-4.2,1.1L8.6,3.6h0c0.5-1.2,1.7-2,3-2
	c1.7,0,3.2,1.3,3.3,3l0,0L15,16.7z M8.3,28.3c-3.7,0-6.7-3-6.7-6.7s3-6.7,6.7-6.7s6.7,3,6.7,6.7S12,28.3,8.3,28.3z M35.8,18
	L29.7,3.3l0,0C29,1.4,27.2,0,25,0c-2.8,0-5,2.2-5,5h-3.3c0-2.8-2.2-5-5-5C9.5,0,7.7,1.4,7,3.3l0,0L0.8,18C0.3,19.1,0,20.4,0,21.7
	C0,26.3,3.7,30,8.3,30c4,0,7.4-2.9,8.2-6.7h3.7c0.8,3.8,4.1,6.7,8.2,6.7c4.6,0,8.3-3.7,8.3-8.3C36.7,20.4,36.4,19.1,35.8,18z
	 M28.3,16.7c-2.8,0-5,2.2-5,5c0,0.5,0.4,0.8,0.8,0.8c0.5,0,0.8-0.4,0.8-0.8c0-1.8,1.5-3.3,3.3-3.3c0.5,0,0.8-0.4,0.8-0.8
	C29.2,17,28.8,16.7,28.3,16.7z M8.3,16.7c-2.8,0-5,2.2-5,5c0,0.5,0.4,0.8,0.8,0.8c0.5,0,0.8-0.4,0.8-0.8c0-1.8,1.5-3.3,3.3-3.3
	c0.5,0,0.8-0.4,0.8-0.8C9.2,17,8.8,16.7,8.3,16.7z"/>
</symbol>
</svg>
