<svg xmlns="http://www.w3.org/2000/svg">
<symbol viewBox="0 0 46.2 46.2" id="rocket">
	<path d="M28.3,25.2c0.6,0,1.1-0.5,1.1-1c0-0.6-0.5-1-1.1-1c-0.6,0-1,0.5-1,1C27.3,24.7,27.8,25.2,28.3,25.2z M35.3,22.8
	c-0.4,0.4-1.1,1.1-1.8,1.9c-1.4,1.4-3.4,3.6-4.7,4.7l-12-12c1.1-1.2,3.3-3.3,4.7-4.7c0.8-0.8,1.5-1.4,1.9-1.8
	C29.1,5.2,40,2.1,44.1,2.1C44.1,5.5,41.2,16.9,35.3,22.8z M27.3,31.1c-0.8,2.8-1.8,5.4-2.9,7.4c-0.5-1.2-1.1-2.6-2.1-4.1
	c-0.4-0.6-1.1-1-1.8-1c-0.2,0-0.3,0-0.5,0.1c-0.4,0.1-0.8,0.2-1.2,0.2c-1.5,0-3-0.7-4.4-2c-1.7-1.7-2.3-3.7-1.8-5.6
	c0.2-0.9-0.2-1.8-0.9-2.3c-1.5-0.9-2.9-1.6-4.1-2.1c2.1-1.1,4.6-2.1,7.4-2.9c0.1,0,0.1-0.1,0.2-0.1L27.4,31
	C27.4,31,27.3,31.1,27.3,31.1z M45.8,0.4C45.6,0.1,45,0,44.1,0c-4.4,0-16,3.2-22.2,9.4c-1.5,1.5-6.3,5.9-7.4,7.4
	c-3.6,1-8.9,3-11.9,5.9c0,0,3.6,0,8,2.8C10,28.2,10.8,31,13,33.2c1.7,1.7,3.8,2.6,5.8,2.6c0.6,0,1.2-0.1,1.7-0.2
	c2.8,4.4,2.8,8,2.8,8c3-3,4.9-8.2,5.9-11.9c1.5-1.1,6-6,7.4-7.4C44.2,16.9,47.3,1.8,45.8,0.4z M34.6,10.5c0.6,0,1.1,0.5,1.1,1
	c0,0.6-0.5,1.1-1.1,1.1c-0.6,0-1-0.5-1-1.1C33.6,11,34.1,10.5,34.6,10.5z M34.6,14.7c1.7,0,3.2-1.4,3.2-3.2c0-1.7-1.4-3.1-3.2-3.1
	c-1.7,0-3.1,1.4-3.1,3.1C31.5,13.3,32.9,14.7,34.6,14.7z M25.2,22.1c0.6,0,1.1-0.5,1.1-1c0-0.6-0.5-1-1.1-1s-1,0.5-1,1
	C24.1,21.6,24.6,22.1,25.2,22.1z M22,16.8c-0.6,0-1,0.5-1,1.1c0,0.6,0.5,1,1,1s1-0.5,1-1C23.1,17.3,22.6,16.8,22,16.8z M3.8,42.4
	l3.8-9.5c0.5,0.9,1.1,1.8,1.9,2.7c1.1,1.3,2.4,2.3,3.8,3.1L3.8,42.4z M8.1,25.8L0,46.2l20.4-8.1c-0.4,0-0.7,0.1-1.1,0.1
	C13.1,38.1,7.4,32.1,8.1,25.8z"/>
</symbol>
<symbol viewBox="0 0 37.8 46.2" id="table">
	<path d="M7.3,35.7h18.9c0.6,0,1.1-0.5,1.1-1c0-0.6-0.5-1-1.1-1H7.3c-0.6,0-1.1,0.5-1.1,1C6.3,35.2,6.8,35.7,7.3,35.7z M7.3,29.4
	h23.1c0.6,0,1-0.5,1-1.1c0-0.6-0.5-1-1-1H7.3c-0.6,0-1.1,0.5-1.1,1C6.3,28.9,6.8,29.4,7.3,29.4z M35.7,12.6H2.1V8.4h8.4
	c0,1.2,0.9,2.1,2.1,2.1h12.6c1.2,0,2.1-0.9,2.1-2.1h8.4V12.6z M35.7,44.1H2.1V14.7h33.6V44.1z M12.6,4.2h12.6v4.2H12.6V4.2z
	 M35.7,6.3h-8.4V4.2c0-1.2-0.9-2.1-2.1-2.1H21C21,0.9,20.1,0,18.9,0s-2.1,0.9-2.1,2.1h-4.2c-1.2,0-2.1,0.9-2.1,2.1v2.1H2.1
	C0.9,6.3,0,7.2,0,8.4v35.7c0,1.2,0.9,2.1,2.1,2.1h33.6c1.2,0,2.1-0.9,2.1-2.1V8.4C37.8,7.2,36.9,6.3,35.7,6.3z M7.3,23.1H20
	c0.6,0,1-0.5,1-1c0-0.6-0.5-1-1-1H7.3c-0.6,0-1.1,0.5-1.1,1C6.3,22.6,6.8,23.1,7.3,23.1z"/>
</symbol>
<symbol viewBox="0 0 46.2 46.2" id="windows">
	<path d="M13.6,12.6c-0.6,0-1,0.5-1,1s0.5,1.1,1,1.1s1.1-0.5,1.1-1.1S14.2,12.6,13.6,12.6z M32.5,12.6H17.9c-0.6,0-1.1,0.5-1.1,1
	s0.5,1.1,1.1,1.1h14.7c0.6,0,1-0.5,1-1.1S33.1,12.6,32.5,12.6z M35.7,16.8H2.1v-4.2c0-1.2,0.9-2.1,2.1-2.1h29.4
	c1.2,0,2.1,0.9,2.1,2.1V16.8z M35.7,42c0,1.2-0.9,2.1-2.1,2.1H4.2c-1.2,0-2.1-0.9-2.1-2.1V18.9h33.6V42z M33.6,8.4H4.2
	C1.9,8.4,0,10.3,0,12.6V42c0,2.3,1.9,4.2,4.2,4.2h29.4c2.3,0,4.2-1.9,4.2-4.2V12.6C37.8,10.3,35.9,8.4,33.6,8.4z M42,0H12.6
	c-2.3,0-4.2,1.9-4.2,4.2v1.1c0,0.6,0.5,1.1,1.1,1.1s1.1-0.5,1.1-1.1V4.2c0-1.2,0.9-2.1,2.1-2.1H42c1.2,0,2.1,0.9,2.1,2.1v29.4
	c0,1.2-0.9,2.1-2.1,2.1h-1c-0.6,0-1,0.5-1,1.1c0,0.6,0.5,1,1,1h1c2.3,0,4.2-1.9,4.2-4.2V4.2C46.2,1.9,44.3,0,42,0z M5.3,12.6
	c-0.6,0-1.1,0.5-1.1,1s0.5,1.1,1.1,1.1s1.1-0.5,1.1-1.1S5.8,12.6,5.3,12.6z M9.4,12.6c-0.6,0-1.1,0.5-1.1,1s0.5,1.1,1.1,1.1
	s1.1-0.5,1.1-1.1S10,12.6,9.4,12.6z"/>
</symbol>
<symbol viewBox="0 0 46.2 33.6" id="money">
	<path d="M24.6,22.2c-0.2-0.1-0.4-0.2-0.6-0.3c-0.2-0.1-0.3-0.1-0.5-0.2V25c0.5,0,0.8-0.2,1.1-0.4c0.3-0.3,0.5-0.7,0.5-1.2
	c0-0.3,0-0.5-0.1-0.7C24.9,22.5,24.8,22.3,24.6,22.2z M21.2,18.3c0,0.2,0,0.4,0.1,0.6c0.1,0.2,0.2,0.3,0.4,0.4
	c0.1,0.1,0.3,0.2,0.5,0.3c0.2,0.1,0.3,0.1,0.5,0.2v-2.9c-0.5,0-0.8,0.1-1.1,0.3C21.3,17.5,21.2,17.8,21.2,18.3z M26.5,24.5
	c-0.2,0.4-0.4,0.7-0.7,1c-0.3,0.3-0.7,0.5-1.1,0.6c-0.4,0.1-0.7,0.2-1.2,0.2v1h-0.8v-1c-0.5,0-0.9-0.1-1.3-0.2
	c-0.4-0.2-0.8-0.4-1.1-0.7c-0.3-0.3-0.5-0.6-0.7-1c-0.2-0.4-0.2-0.9-0.2-1.4H21c0,0.6,0.1,1.1,0.4,1.5c0.3,0.4,0.6,0.6,1.3,0.6v-3.5
	c-0.4-0.1-0.6-0.2-1-0.4c-0.4-0.1-0.7-0.3-1-0.6c-0.3-0.2-0.6-0.5-0.7-0.9c-0.2-0.4-0.3-0.8-0.3-1.3c0-0.5,0.1-0.9,0.3-1.2
	c0.2-0.3,0.4-0.6,0.7-0.9c0.3-0.2,0.6-0.4,1-0.5c0.4-0.1,0.7-0.2,1.1-0.2v-0.9h0.8v0.9c0.4,0,0.7,0.1,1.1,0.2c0.4,0.1,0.7,0.3,1,0.5
	c0.3,0.2,0.5,0.5,0.7,0.9c0.2,0.4,0.2,0.8,0.2,1.2h-1.6c0-0.5-0.1-0.9-0.4-1.1c-0.2-0.3-0.5-0.4-1-0.4v3c0.4,0.1,0.7,0.2,1.1,0.4
	c0.4,0.2,0.8,0.3,1.1,0.6c0.3,0.2,0.6,0.5,0.7,0.9c0.2,0.4,0.3,0.8,0.3,1.3C26.8,23.6,26.7,24.1,26.5,24.5z M23.1,12.6
	c-4.6,0-8.4,3.8-8.4,8.4c0,4.6,3.8,8.4,8.4,8.4s8.4-3.8,8.4-8.4C31.5,16.4,27.7,12.6,23.1,12.6z M11.5,12.6H9.4
	c-0.6,0-1.1,0.5-1.1,1.1s0.5,1.1,1.1,1.1h2.1c0.6,0,1.1-0.5,1.1-1.1S12.1,12.6,11.5,12.6z M36.8,27.3h-2.1c-0.6,0-1,0.5-1,1
	s0.5,1,1,1h2.1c0.6,0,1.1-0.5,1.1-1S37.3,27.3,36.8,27.3z M43.1,12.6c-0.6,0-1.1-0.5-1.1-1.1c0-0.6,0.5-1,1.1-1c0.6,0,1,0.5,1,1
	C44.1,12.1,43.6,12.6,43.1,12.6z M44.1,27.5c-0.3-0.1-0.7-0.2-1-0.2c-1.7,0-3.2,1.4-3.2,3.1c0,0.4,0.1,0.7,0.2,1h-34
	c0.1-0.3,0.2-0.7,0.2-1c0-1.7-1.4-3.1-3.2-3.1c-0.4,0-0.7,0.1-1.1,0.2v-13c0.3,0.1,0.7,0.2,1.1,0.2c1.7,0,3.2-1.4,3.2-3.2
	c0-0.4-0.1-0.7-0.2-1h34c-0.1,0.3-0.2,0.7-0.2,1c0,1.7,1.4,3.2,3.2,3.2c0.4,0,0.7-0.1,1-0.2V27.5z M43.1,31.5c-0.6,0-1.1-0.5-1.1-1
	c0-0.6,0.5-1.1,1.1-1.1c0.6,0,1,0.5,1,1.1C44.1,31,43.6,31.5,43.1,31.5z M3.2,31.5c-0.6,0-1.1-0.5-1.1-1c0-0.6,0.5-1.1,1.1-1.1
	s1.1,0.5,1.1,1.1C4.2,31,3.7,31.5,3.2,31.5z M3.2,10.5c0.6,0,1.1,0.5,1.1,1c0,0.6-0.5,1.1-1.1,1.1s-1.1-0.5-1.1-1.1
	C2.1,11,2.6,10.5,3.2,10.5z M44.1,8.4h-42C0.9,8.4,0,9.3,0,10.5v21c0,1.2,0.9,2.1,2.1,2.1h42c1.2,0,2.1-0.9,2.1-2.1v-21
	C46.2,9.3,45.3,8.4,44.1,8.4z M5.3,6.3H41c0.6,0,1-0.5,1-1c0-0.6-0.5-1.1-1-1.1H5.3c-0.6,0-1,0.5-1,1.1C4.2,5.8,4.7,6.3,5.3,6.3z
	 M9.4,2.1h27.3c0.6,0,1.1-0.5,1.1-1.1c0-0.6-0.5-1-1.1-1H9.4C8.9,0,8.4,0.5,8.4,1C8.4,1.6,8.9,2.1,9.4,2.1z"/>	
</symbol>
<symbol viewBox="0 0 38 38" id="g">
	<path d="M19,0C8.5,0,0,8.5,0,19s8.5,19,19,19s19-8.5,19-19S29.5,0,19,0z M29.6,25.5c-1,1.8-2.4,3.3-4.2,4.3c-1.8,1-3.9,1.5-6.2,1.5
	c-1.7,0-3.3-0.3-4.8-1c-1.5-0.6-2.8-1.5-3.9-2.6s-2-2.4-2.6-3.9c-0.6-1.5-1-3.1-1-4.8c0-1.7,0.3-3.3,1-4.8c0.6-1.5,1.5-2.8,2.6-3.9
	c1.1-1.1,2.4-2,3.9-2.6c1.5-0.6,3.1-1,4.8-1c3.2,0,6,1.1,8.2,3.2l0.3,0.3L24,13.8l-0.3-0.3c-1.2-1.2-2.7-1.7-4.5-1.7
	c-1.3,0-2.4,0.3-3.5,1c-1.1,0.6-1.9,1.5-2.6,2.6c-0.6,1.1-0.9,2.3-0.9,3.6s0.3,2.5,0.9,3.6c0.6,1.1,1.5,2,2.6,2.6
	c1.1,0.6,2.2,1,3.5,1c0.9,0,1.6-0.1,2.4-0.4c0.7-0.2,1.3-0.5,1.7-0.9c0.5-0.4,0.9-0.8,1.2-1.2c0.3-0.4,0.6-0.9,0.8-1.3
	c0.1-0.2,0.2-0.5,0.2-0.7h-6.7v-4.8h11.9l0.1,0.3c0.1,0.7,0.2,1.4,0.2,2C31,21.6,30.5,23.7,29.6,25.5z"/>
</symbol>
<symbol viewBox="0 0 20.7 20.7" id="close">
	<polygon points="20.7,0.7 20,0 10.4,9.6 0.7,0 0,0.7 9.6,10.4 0,20 0.7,20.7 10.4,11.1 20,20.7 20.7,20 11.1,10.4 "/>
</symbol>
<symbol viewBox="0 0 21 42" id="arrow">
	<path d="M2.5,21L20.7,1.8C20.9,1.6,21,1.3,21,1.1C21,0.5,20.5,0,19.9,0c-0.3,0-0.6,0.1-0.7,0.3L0.3,20.3
	C0.1,20.4,0,20.7,0,21s0.1,0.6,0.3,0.7l18.9,20c0.2,0.2,0.5,0.3,0.7,0.3c0.6,0,1.1-0.5,1.1-1.1c0-0.3-0.1-0.6-0.3-0.7L2.5,21z"/>
</symbol>
</svg>